<mxfile host="app.diagrams.net" agent="Mozilla/5.0 (Windows NT 10.0; Win64; x64) AppleWebKit/537.36 (KHTML, like Gecko) Chrome/139.0.0.0 Safari/537.36" version="28.2.0">
  <diagram name="squat_fsm" id="Axa23K6Kp5Xp_Ojo1pyK">
    <mxGraphModel dx="2339" dy="753" grid="1" gridSize="10" guides="1" tooltips="1" connect="1" arrows="1" fold="1" page="1" pageScale="1" pageWidth="850" pageHeight="1100" math="0" shadow="0">
      <root>
        <mxCell id="0" />
        <mxCell id="1" parent="0" />
        <mxCell id="jafz_nOxkqsSOnday29z-4" value="wait_rx_not_valid" style="ellipse;whiteSpace=wrap;html=1;aspect=fixed;fontSize=16;" vertex="1" parent="1">
          <mxGeometry x="671" y="696" width="130" height="130" as="geometry" />
        </mxCell>
        <mxCell id="jafz_nOxkqsSOnday29z-6" value="wait_rx_valid" style="ellipse;whiteSpace=wrap;html=1;aspect=fixed;fontSize=16;" vertex="1" parent="1">
          <mxGeometry x="671" y="330" width="130" height="130" as="geometry" />
        </mxCell>
        <mxCell id="jafz_nOxkqsSOnday29z-7" value="reset" style="ellipse;whiteSpace=wrap;html=1;aspect=fixed;fontSize=16;" vertex="1" parent="1">
          <mxGeometry x="332" y="140" width="130" height="130" as="geometry" />
        </mxCell>
        <mxCell id="jafz_nOxkqsSOnday29z-8" value="wait_tx_ready" style="ellipse;whiteSpace=wrap;html=1;aspect=fixed;fontSize=16;" vertex="1" parent="1">
          <mxGeometry x="90" y="696" width="130" height="130" as="geometry" />
        </mxCell>
        <mxCell id="jafz_nOxkqsSOnday29z-10" value="wait_tx_not_ready" style="ellipse;whiteSpace=wrap;html=1;aspect=fixed;fontSize=16;" vertex="1" parent="1">
          <mxGeometry x="90" y="330" width="130" height="130" as="geometry" />
        </mxCell>
        <mxCell id="jafz_nOxkqsSOnday29z-11" value="" style="endArrow=classic;html=1;rounded=0;" edge="1" parent="1" source="jafz_nOxkqsSOnday29z-7" target="jafz_nOxkqsSOnday29z-6">
          <mxGeometry width="50" height="50" relative="1" as="geometry">
            <mxPoint x="482" y="380" as="sourcePoint" />
            <mxPoint x="462" y="480" as="targetPoint" />
          </mxGeometry>
        </mxCell>
        <mxCell id="jafz_nOxkqsSOnday29z-26" value="&lt;font style=&quot;font-size: 16px;&quot;&gt;Rxready &amp;lt;= &#39;1;&lt;/font&gt;&lt;div&gt;&lt;font style=&quot;font-size: 16px;&quot;&gt;Txvalid &amp;lt;= &#39;0;&lt;/font&gt;&lt;/div&gt;&lt;div&gt;&lt;font style=&quot;font-size: 16px;&quot;&gt;Txsel_out &amp;lt;= &#39;0;&lt;/font&gt;&lt;/div&gt;" style="edgeLabel;html=1;align=center;verticalAlign=middle;resizable=0;points=[];" vertex="1" connectable="0" parent="jafz_nOxkqsSOnday29z-11">
          <mxGeometry x="-0.0543" y="-3" relative="1" as="geometry">
            <mxPoint as="offset" />
          </mxGeometry>
        </mxCell>
        <mxCell id="jafz_nOxkqsSOnday29z-12" value="" style="endArrow=classic;html=1;rounded=0;entryX=0.5;entryY=0;entryDx=0;entryDy=0;" edge="1" parent="1" target="jafz_nOxkqsSOnday29z-7">
          <mxGeometry width="50" height="50" relative="1" as="geometry">
            <mxPoint x="397" y="60" as="sourcePoint" />
            <mxPoint x="412" y="130" as="targetPoint" />
          </mxGeometry>
        </mxCell>
        <mxCell id="jafz_nOxkqsSOnday29z-13" value="&lt;font style=&quot;font-size: 16px;&quot;&gt;&lt;u&gt;Reset&lt;/u&gt;&lt;/font&gt;" style="edgeLabel;html=1;align=center;verticalAlign=middle;resizable=0;points=[];" vertex="1" connectable="0" parent="jafz_nOxkqsSOnday29z-12">
          <mxGeometry x="-0.035" relative="1" as="geometry">
            <mxPoint x="25" as="offset" />
          </mxGeometry>
        </mxCell>
        <mxCell id="jafz_nOxkqsSOnday29z-15" value="" style="endArrow=classic;html=1;rounded=0;exitX=0.5;exitY=1;exitDx=0;exitDy=0;entryX=0.5;entryY=0;entryDx=0;entryDy=0;" edge="1" parent="1" source="jafz_nOxkqsSOnday29z-6" target="jafz_nOxkqsSOnday29z-4">
          <mxGeometry width="50" height="50" relative="1" as="geometry">
            <mxPoint x="591" y="530" as="sourcePoint" />
            <mxPoint x="641" y="480" as="targetPoint" />
          </mxGeometry>
        </mxCell>
        <mxCell id="jafz_nOxkqsSOnday29z-17" value="&lt;font style=&quot;font-size: 16px;&quot;&gt;&lt;u&gt;Rxvalid[i] &amp;amp;&amp;amp; RoundRobin[i]&lt;/u&gt;&lt;/font&gt;&lt;div&gt;&lt;font style=&quot;font-size: 16px;&quot;&gt;Rxready[i] &amp;lt;= &#39;0;&lt;/font&gt;&lt;/div&gt;&lt;div&gt;&lt;font style=&quot;font-size: 16px;&quot;&gt;ATMCell &amp;lt;= RxATMcell[i];&lt;/font&gt;&lt;/div&gt;" style="edgeLabel;html=1;align=center;verticalAlign=middle;resizable=0;points=[];" vertex="1" connectable="0" parent="jafz_nOxkqsSOnday29z-15">
          <mxGeometry x="-0.01" y="-1" relative="1" as="geometry">
            <mxPoint x="1" y="21" as="offset" />
          </mxGeometry>
        </mxCell>
        <mxCell id="jafz_nOxkqsSOnday29z-18" value="" style="endArrow=classic;html=1;rounded=0;exitX=0;exitY=0.5;exitDx=0;exitDy=0;entryX=1;entryY=0.5;entryDx=0;entryDy=0;" edge="1" parent="1" source="jafz_nOxkqsSOnday29z-4" target="jafz_nOxkqsSOnday29z-8">
          <mxGeometry width="50" height="50" relative="1" as="geometry">
            <mxPoint x="362" y="876" as="sourcePoint" />
            <mxPoint x="412" y="826" as="targetPoint" />
          </mxGeometry>
        </mxCell>
        <mxCell id="jafz_nOxkqsSOnday29z-19" value="&lt;u&gt;ATMcell.uni.HEC == hec(ATMcell.Mem[0:3])&lt;/u&gt;&lt;br&gt;{forward, ATMcell.nni.VPI} &amp;lt;= lut.read(ATMcell.uni.VPI);&lt;br&gt;&lt;div&gt;ATMCell.nni.HEC &amp;lt;= hec(ATMcell.Mem[0:3]);&lt;/div&gt;" style="edgeLabel;html=1;align=center;verticalAlign=middle;resizable=0;points=[];fontSize=16;" vertex="1" connectable="0" parent="jafz_nOxkqsSOnday29z-18">
          <mxGeometry x="0.1729" y="-1" relative="1" as="geometry">
            <mxPoint x="43" y="-4" as="offset" />
          </mxGeometry>
        </mxCell>
        <mxCell id="jafz_nOxkqsSOnday29z-20" value="" style="endArrow=classic;html=1;rounded=0;entryX=1;entryY=0.5;entryDx=0;entryDy=0;exitX=1.012;exitY=0.44;exitDx=0;exitDy=0;exitPerimeter=0;edgeStyle=elbowEdgeStyle;" edge="1" parent="1" source="jafz_nOxkqsSOnday29z-4" target="jafz_nOxkqsSOnday29z-6">
          <mxGeometry width="50" height="50" relative="1" as="geometry">
            <mxPoint x="861" y="680" as="sourcePoint" />
            <mxPoint x="911" y="630" as="targetPoint" />
            <Array as="points">
              <mxPoint x="891" y="520" />
            </Array>
          </mxGeometry>
        </mxCell>
        <mxCell id="jafz_nOxkqsSOnday29z-22" value="&lt;font style=&quot;font-size: 16px;&quot;&gt;&lt;u&gt;ATMcell.uni.HEC != hec(ATMcell.Mem[0:3])&lt;/u&gt;&lt;br&gt;&lt;/font&gt;" style="edgeLabel;html=1;align=center;verticalAlign=middle;resizable=0;points=[];" vertex="1" connectable="0" parent="jafz_nOxkqsSOnday29z-20">
          <mxGeometry x="0.0491" relative="1" as="geometry">
            <mxPoint x="8" y="-15" as="offset" />
          </mxGeometry>
        </mxCell>
        <mxCell id="jafz_nOxkqsSOnday29z-24" value="" style="endArrow=classic;html=1;rounded=0;entryX=0;entryY=0.5;entryDx=0;entryDy=0;exitX=1;exitY=0;exitDx=0;exitDy=0;" edge="1" parent="1" source="jafz_nOxkqsSOnday29z-8" target="jafz_nOxkqsSOnday29z-6">
          <mxGeometry width="50" height="50" relative="1" as="geometry">
            <mxPoint x="220" y="570" as="sourcePoint" />
            <mxPoint x="560" y="390" as="targetPoint" />
          </mxGeometry>
        </mxCell>
        <mxCell id="jafz_nOxkqsSOnday29z-25" value="&lt;font style=&quot;font-size: 16px;&quot;&gt;&lt;u&gt;!forward&lt;/u&gt;&lt;/font&gt;" style="edgeLabel;html=1;align=center;verticalAlign=middle;resizable=0;points=[];" vertex="1" connectable="0" parent="jafz_nOxkqsSOnday29z-24">
          <mxGeometry x="-0.0171" relative="1" as="geometry">
            <mxPoint x="5" y="-9" as="offset" />
          </mxGeometry>
        </mxCell>
        <mxCell id="jafz_nOxkqsSOnday29z-27" value="" style="endArrow=classic;html=1;rounded=0;exitX=0.5;exitY=0;exitDx=0;exitDy=0;entryX=0.5;entryY=1;entryDx=0;entryDy=0;" edge="1" parent="1" source="jafz_nOxkqsSOnday29z-8" target="jafz_nOxkqsSOnday29z-10">
          <mxGeometry width="50" height="50" relative="1" as="geometry">
            <mxPoint x="130" y="560" as="sourcePoint" />
            <mxPoint x="180" y="510" as="targetPoint" />
          </mxGeometry>
        </mxCell>
        <mxCell id="jafz_nOxkqsSOnday29z-28" value="&lt;font style=&quot;font-size: 16px;&quot;&gt;&lt;u&gt;forward[i] &amp;amp;&amp;amp; Txready[i]&lt;/u&gt;&lt;br&gt;&lt;/font&gt;&lt;div&gt;&lt;span style=&quot;font-size: 16px;&quot;&gt;TxATMCell[i] &amp;lt;= ATMcell;&lt;/span&gt;&lt;/div&gt;&lt;div&gt;&lt;font style=&quot;font-size: 16px;&quot;&gt;Txvalid[i] &amp;lt;= &#39;1;&lt;/font&gt;&lt;/div&gt;&lt;div&gt;&lt;font style=&quot;font-size: 16px;&quot;&gt;Txsel_out[i] &amp;lt;= &#39;1;&lt;/font&gt;&lt;/div&gt;" style="edgeLabel;html=1;align=center;verticalAlign=middle;resizable=0;points=[];" vertex="1" connectable="0" parent="jafz_nOxkqsSOnday29z-27">
          <mxGeometry x="0.0833" y="-1" relative="1" as="geometry">
            <mxPoint x="-1" y="10" as="offset" />
          </mxGeometry>
        </mxCell>
        <mxCell id="jafz_nOxkqsSOnday29z-29" value="" style="endArrow=classic;html=1;rounded=0;exitX=0;exitY=0.5;exitDx=0;exitDy=0;entryX=0;entryY=0.5;entryDx=0;entryDy=0;edgeStyle=orthogonalEdgeStyle;" edge="1" parent="1" source="jafz_nOxkqsSOnday29z-10" target="jafz_nOxkqsSOnday29z-8">
          <mxGeometry width="50" height="50" relative="1" as="geometry">
            <mxPoint x="290" y="460" as="sourcePoint" />
            <mxPoint x="340" y="410" as="targetPoint" />
            <Array as="points">
              <mxPoint x="-80" y="395" />
              <mxPoint x="-80" y="760" />
              <mxPoint x="90" y="760" />
            </Array>
          </mxGeometry>
        </mxCell>
        <mxCell id="jafz_nOxkqsSOnday29z-30" value="&lt;span style=&quot;font-size: 16px;&quot;&gt;&lt;u&gt;forward[i] &amp;amp;&amp;amp; !Txready[i] &amp;amp;&amp;amp; Txsel_in[i]&lt;/u&gt;&lt;br&gt;Txvalid[i] &amp;lt;= &#39;0;&lt;/span&gt;&lt;div&gt;&lt;span style=&quot;font-size: 16px;&quot;&gt;Txsel_out &amp;lt;= &#39;0;&lt;/span&gt;&lt;/div&gt;&lt;div&gt;&lt;span style=&quot;font-size: 16px;&quot;&gt;forward[i] &amp;lt;= &#39;0;&lt;/span&gt;&lt;span style=&quot;font-size: 16px;&quot;&gt;&lt;/span&gt;&lt;/div&gt;" style="edgeLabel;html=1;align=center;verticalAlign=middle;resizable=0;points=[];" vertex="1" connectable="0" parent="jafz_nOxkqsSOnday29z-29">
          <mxGeometry x="-0.0498" y="-2" relative="1" as="geometry">
            <mxPoint x="2" y="19" as="offset" />
          </mxGeometry>
        </mxCell>
        <mxCell id="jafz_nOxkqsSOnday29z-32" value="" style="endArrow=classic;html=1;rounded=0;exitX=1;exitY=0.5;exitDx=0;exitDy=0;entryX=0;entryY=0.5;entryDx=0;entryDy=0;" edge="1" parent="1" source="jafz_nOxkqsSOnday29z-10" target="jafz_nOxkqsSOnday29z-6">
          <mxGeometry width="50" height="50" relative="1" as="geometry">
            <mxPoint x="420" y="440" as="sourcePoint" />
            <mxPoint x="470" y="390" as="targetPoint" />
          </mxGeometry>
        </mxCell>
        <mxCell id="jafz_nOxkqsSOnday29z-33" value="&lt;font style=&quot;font-size: 16px;&quot;&gt;&lt;u&gt;!forward&lt;/u&gt;&lt;/font&gt;" style="edgeLabel;html=1;align=center;verticalAlign=middle;resizable=0;points=[];" vertex="1" connectable="0" parent="jafz_nOxkqsSOnday29z-32">
          <mxGeometry x="-0.0798" y="2" relative="1" as="geometry">
            <mxPoint x="-2" y="-13" as="offset" />
          </mxGeometry>
        </mxCell>
      </root>
    </mxGraphModel>
  </diagram>
</mxfile>
